<?xml version="1.0" encoding="utf-8"?>
<!-- Generator: Adobe Illustrator 19.0.0, SVG Export Plug-In . SVG Version: 6.00 Build 0)  -->
<svg version="1.1" id="Layer_1" xmlns="http://www.w3.org/2000/svg" xmlns:xlink="http://www.w3.org/1999/xlink" x="0px" y="0px"
	 viewBox="-258 382.2 94 29.8" style="enable-background:new -258 382.2 94 29.8;" xml:space="preserve">
<style type="text/css">
	.st0{fill:#EBCA84;}
</style>
<g>
	<path class="st0" d="M-165.5,409.9h-0.3v-0.6h0.4c0.2,0,0.4,0,0.4,0.3C-165.1,409.9-165.3,409.9-165.5,409.9L-165.5,409.9z
		 M-164.8,409.6c0-0.3-0.2-0.5-0.6-0.5h-0.7v1.7h0.3V410h0.3l0.5,0.8h0.3l-0.5-0.8C-165,410.1-164.8,409.9-164.8,409.6L-164.8,409.6
		z M-165.5,411.3c-0.7,0-1.2-0.6-1.2-1.3c0-0.7,0.5-1.3,1.2-1.3s1.2,0.6,1.2,1.3C-164.3,410.7-164.8,411.3-165.5,411.3L-165.5,411.3
		z M-165.5,408.5c-0.8,0-1.5,0.6-1.5,1.5c0,0.9,0.7,1.5,1.5,1.5s1.5-0.6,1.5-1.5C-164,409.1-164.7,408.5-165.5,408.5L-165.5,408.5z
		 M-174.7,403.9l9.9-15.3H-180l-2.6,4v-4l0,0l0,0c-3.2,0-5.2,0.3-7.5,2.4v-2.5h-8.7v4.8c0,3.3,2.7,6.1,5.9,6.3l2.9,0.2
		c0.4-1.6,1.8-3.6,7.3-3.6l0,0h3.9l-9.9,15.3h18.9l4.9-7.6H-174.7L-174.7,403.9z M-226.3,405.6c-2.3,0-2.5-1.7-2.5-2.6v-6.8h3.2
		c-0.4,1.2-0.6,2.5-0.6,3.9c0,2,0.5,3.8,1.3,5.5C-225.4,405.6-225.9,405.6-226.3,405.6L-226.3,405.6z M-209,391
		c-1.2-1.8-3.1-3-5.9-3c-3.3,0-6.3,1.5-8.3,3.9c-0.6,0.7-1.1,1.4-1.5,2.2v-5.6h-4v-6.2h-8.7v18.5c-0.6-1.2-1.5-2.2-2.8-2.9
		c-1.1-0.6-2-0.8-5.9-1.7c-2.9-0.7-3.5-0.9-3.5-1.7c0-1.2,1.5-1.2,1.9-1.2c2.3,0,4.2,1.2,5.7,2.1l3.5-5.2c-1-0.6-2.2-1.2-4.3-1.7
		c-1.7-0.4-3.3-0.6-5-0.6c-1.4,0-5.2,0.1-7.8,2.6c-1.5,1.3-2.4,3.1-2.4,5.1c0,4.7,4,5.9,6.1,6.5c2,0.6,3.8,0.9,4.6,1
		c0.9,0.1,2.2,0.3,2.2,1.5c0,1-1.2,1.4-2.3,1.4c-0.7,0-1.9-0.1-3.5-0.7c-1.7-0.7-2.5-1.5-3.3-2.3l-3.7,5.5c2.1,1.5,5.4,3.5,10.5,3.5
		c5.2,0,8.6-2.3,9.9-5.3c0.1,1.1,0.4,2.4,1.5,3.5c1.7,1.8,4.8,1.8,5.8,1.8c1.8,0,3.6-0.2,5.5-0.5V406c2,3.6,5.6,6,9.8,6
		c2.9,0,4.7-1.1,5.9-3v2.5h8.7v-4.7c0-3.3-2.7-6.1-5.9-6.3l-2.8-0.2c-0.1,2.4-2.1,4.3-4.5,4.3c-2.5,0-4.5-2-4.5-4.5s2-4.5,4.5-4.5
		c2.4,0,4.4,1.9,4.5,4.3l2.8-0.2c3.3-0.2,5.9-3,5.9-6.3v-4.9h-8.7V391L-209,391z M-198.8,406.7v4.7h8.8v-10.7c0-0.1,0-0.3,0-0.4
		l-2.8,0.2C-196.1,400.6-198.8,403.4-198.8,406.7L-198.8,406.7z"/>
</g>
</svg>
