<?xml version="1.0" encoding="utf-8"?>
<!-- Generator: Adobe Illustrator 18.1.1, SVG Export Plug-In . SVG Version: 6.00 Build 0)  -->
<svg version="1.1" id="Layer_1" xmlns="http://www.w3.org/2000/svg" xmlns:xlink="http://www.w3.org/1999/xlink" x="0px" y="0px"
	 viewBox="0 0 94 29.8" enable-background="new 0 0 94 29.8" xml:space="preserve">
<g>
	<path fill="#FFFFFF" d="M92.5,27.7h-0.3v-0.6h0.4c0.2,0,0.4,0,0.4,0.3C92.9,27.7,92.7,27.7,92.5,27.7L92.5,27.7z M93.2,27.4
		c0-0.3-0.2-0.5-0.6-0.5h-0.7v1.7h0.3v-0.8h0.3l0.5,0.8h0.3l-0.5-0.8C93,27.9,93.2,27.7,93.2,27.4L93.2,27.4z M92.5,29.1
		c-0.7,0-1.2-0.6-1.2-1.3c0-0.7,0.5-1.3,1.2-1.3c0.7,0,1.2,0.6,1.2,1.3C93.7,28.5,93.2,29.1,92.5,29.1L92.5,29.1z M92.5,26.3
		c-0.8,0-1.5,0.6-1.5,1.5c0,0.9,0.7,1.5,1.5,1.5c0.8,0,1.5-0.6,1.5-1.5C94,26.9,93.3,26.3,92.5,26.3L92.5,26.3z M83.3,21.7l9.9-15.3
		H78l-2.6,4v-4l0,0v0c-3.2,0-5.2,0.3-7.5,2.4V6.3h-8.7v4.8c0,3.3,2.7,6.1,5.9,6.3l2.9,0.2c0.4-1.6,1.8-3.6,7.3-3.6v0h3.9l-9.9,15.3
		h18.9l4.9-7.6H83.3L83.3,21.7z M31.7,23.4c-2.3,0-2.5-1.7-2.5-2.6V14h3.2c-0.4,1.2-0.6,2.5-0.6,3.9c0,2,0.5,3.8,1.3,5.5
		C32.6,23.4,32.1,23.4,31.7,23.4L31.7,23.4z M49,8.8c-1.2-1.8-3.1-3-5.9-3c-3.3,0-6.3,1.5-8.3,3.9c-0.6,0.7-1.1,1.4-1.5,2.2V6.3
		l-4,0V0.1h-8.7v18.5c-0.6-1.2-1.5-2.2-2.8-2.9c-1.1-0.6-2-0.8-5.9-1.7c-2.9-0.7-3.5-0.9-3.5-1.7c0-1.2,1.5-1.2,1.9-1.2
		c2.3,0,4.2,1.2,5.7,2.1l3.5-5.2c-1-0.6-2.2-1.2-4.3-1.7c-1.7-0.4-3.3-0.6-5-0.6c-1.4,0-5.2,0.1-7.8,2.6C0.9,9.6,0,11.4,0,13.4
		c0,4.7,4,5.9,6.1,6.5c2,0.6,3.8,0.9,4.6,1c0.9,0.1,2.2,0.3,2.2,1.5c0,1-1.2,1.4-2.3,1.4c-0.7,0-1.9-0.1-3.5-0.7
		c-1.7-0.7-2.5-1.5-3.3-2.3l-3.7,5.5c2.1,1.5,5.4,3.5,10.5,3.5c5.2,0,8.6-2.3,9.9-5.3c0.1,1.1,0.4,2.4,1.5,3.5
		c1.7,1.8,4.8,1.8,5.8,1.8c1.8,0,3.6-0.2,5.5-0.5v-5.5c2,3.6,5.6,6,9.8,6c2.9,0,4.7-1.1,5.9-3v2.5h8.7v-4.7c0-3.3-2.7-6.1-5.9-6.3
		L49,18.1c-0.1,2.4-2.1,4.3-4.5,4.3c-2.5,0-4.5-2-4.5-4.5c0-2.5,2-4.5,4.5-4.5c2.4,0,4.4,1.9,4.5,4.3l2.8-0.2c3.3-0.2,5.9-3,5.9-6.3
		V6.3H49V8.8L49,8.8z M59.2,24.5v4.7H68V18.5c0-0.1,0-0.3,0-0.4l-2.8,0.2C61.9,18.4,59.2,21.2,59.2,24.5L59.2,24.5z"/>
</g>
</svg>
