<?xml version="1.0" encoding="utf-8"?>
<!-- Generator: Adobe Illustrator 18.1.1, SVG Export Plug-In . SVG Version: 6.00 Build 0)  -->
<svg version="1.1" id="Layer_1" xmlns="http://www.w3.org/2000/svg" xmlns:xlink="http://www.w3.org/1999/xlink" x="0px" y="0px"
	 viewBox="0 0 226.8 25.8" enable-background="new 0 0 226.8 25.8" xml:space="preserve">
<g>
	<defs>
		<rect id="SVGID_1_" x="0" y="0" width="226.8" height="25.8"/>
	</defs>
	<clipPath id="SVGID_2_">
		<use xlink:href="#SVGID_1_"  overflow="visible"/>
	</clipPath>
	<path clip-path="url(#SVGID_2_)" fill="#0F85BA" d="M2.5,5.1c0,1,0.8,1.4,1.6,1.4c0.6,0,1.4-0.2,1.4-0.9c0-0.8-1.1-0.9-2.2-1.2
		C2.2,4,1.1,3.6,1.1,2.2C1.1,0.7,2.6,0,3.9,0c1.5,0,3,0.7,3,2.4H5.3C5.2,1.5,4.6,1.3,3.8,1.3c-0.5,0-1.1,0.2-1.1,0.8
		c0,0.6,0.4,0.6,2.2,1.1c0.5,0.1,2.2,0.5,2.2,2.2C7.1,6.7,6,7.7,4,7.7c-1.6,0-3.2-0.8-3.1-2.6H2.5z"/>
</g>
<polygon fill="#0F85BA" points="8.2,0.2 8.2,7.6 13.8,7.6 13.8,6.2 9.8,6.2 9.8,4.4 13.4,4.4 13.4,3.1 9.8,3.1 9.8,1.5 13.7,1.5 
	13.7,0.2 "/>
<g>
	<defs>
		<rect id="SVGID_3_" x="0" y="0" width="226.8" height="25.8"/>
	</defs>
	<clipPath id="SVGID_4_">
		<use xlink:href="#SVGID_3_"  overflow="visible"/>
	</clipPath>
	<path clip-path="url(#SVGID_4_)" fill="#0F85BA" d="M16.7,3.5h1.8c0.7,0,1.1-0.3,1.1-1.1c0-0.7-0.4-1-1.1-1h-1.8V3.5z M15.1,0.2h4
		c1.3,0,2.2,0.9,2.2,2c0,0.9-0.4,1.5-1.2,1.9v0c0.8,0.2,1,1,1.1,1.7c0,0.5,0,1.3,0.3,1.7h-1.6c-0.2-0.5-0.2-1.2-0.3-1.8
		c-0.1-0.8-0.4-1.1-1.2-1.1h-1.6v2.9h-1.6V0.2z"/>
</g>
<rect x="22.7" y="0.2" fill="#0F85BA" width="1.6" height="7.4"/>
<polygon fill="#0F85BA" points="25.9,0.2 25.9,7.6 31.5,7.6 31.5,6.2 27.6,6.2 27.6,4.4 31.1,4.4 31.1,3.1 27.6,3.1 27.6,1.5 
	31.5,1.5 31.5,0.2 "/>
<g>
	<defs>
		<rect id="SVGID_5_" x="0" y="0" width="226.8" height="25.8"/>
	</defs>
	<clipPath id="SVGID_6_">
		<use xlink:href="#SVGID_5_"  overflow="visible"/>
	</clipPath>
	<path clip-path="url(#SVGID_6_)" fill="#0F85BA" d="M33.9,5.1c0,1,0.8,1.4,1.6,1.4c0.6,0,1.4-0.2,1.4-0.9c0-0.8-1.1-0.9-2.2-1.2
		c-1.1-0.3-2.2-0.7-2.2-2.1C32.6,0.7,34,0,35.3,0c1.5,0,3,0.7,3,2.4h-1.6c-0.1-0.9-0.7-1.1-1.5-1.1c-0.5,0-1.1,0.2-1.1,0.8
		c0,0.6,0.4,0.6,2.2,1.1c0.5,0.1,2.2,0.5,2.2,2.2c0,1.4-1.1,2.4-3.1,2.4c-1.6,0-3.2-0.8-3.1-2.6H33.9z"/>
	<path clip-path="url(#SVGID_6_)" fill="#0F85BA" d="M44.3,3.7h1.3c0.8,0,1.4-0.2,1.4-1.1s-0.7-1.1-1.4-1.1h-1.3V3.7z M42.7,0.2H46
		c1.8,0,2.6,1.2,2.6,2.4c0,1.2-0.7,2.4-2.6,2.4h-1.7v2.6h-1.6V0.2z"/>
	<path clip-path="url(#SVGID_6_)" fill="#0F85BA" d="M51.4,3.5h1.8c0.7,0,1.1-0.3,1.1-1.1c0-0.7-0.4-1-1.1-1h-1.8V3.5z M49.8,0.2h4
		c1.3,0,2.2,0.9,2.2,2c0,0.9-0.4,1.5-1.2,1.9v0c0.8,0.2,1,1,1.1,1.7c0,0.5,0,1.3,0.3,1.7h-1.6c-0.2-0.5-0.2-1.2-0.3-1.8
		C54.1,5,53.8,4.7,53,4.7h-1.6v2.9h-1.6V0.2z"/>
</g>
<polygon fill="#0F85BA" points="57.4,0.2 57.4,7.6 63,7.6 63,6.2 59,6.2 59,4.4 62.6,4.4 62.6,3.1 59,3.1 59,1.5 62.9,1.5 62.9,0.2 
	"/>
<polygon fill="#0F85BA" points="69.9,0.2 68.3,5.3 68.3,5.3 66.5,0.2 64.3,0.2 64.3,7.6 65.8,7.6 65.8,2.4 65.8,2.4 67.6,7.6 
	68.9,7.6 70.7,2.3 70.7,2.3 70.7,7.6 72.2,7.6 72.2,0.2 "/>
<rect x="73.8" y="0.2" fill="#0F85BA" width="1.6" height="7.4"/>
<polygon fill="#0F85BA" points="77,0.2 77,7.6 82.6,7.6 82.6,6.2 78.6,6.2 78.6,4.4 82.2,4.4 82.2,3.1 78.6,3.1 78.6,1.5 82.5,1.5 
	82.5,0.2 "/>
<g>
	<defs>
		<rect id="SVGID_7_" x="0" y="0" width="226.8" height="25.8"/>
	</defs>
	<clipPath id="SVGID_8_">
		<use xlink:href="#SVGID_7_"  overflow="visible"/>
	</clipPath>
	<path clip-path="url(#SVGID_8_)" fill="#0F85BA" d="M85.5,3.5h1.8c0.7,0,1.1-0.3,1.1-1.1c0-0.7-0.4-1-1.1-1h-1.8V3.5z M83.9,0.2h4
		c1.3,0,2.2,0.9,2.2,2c0,0.9-0.4,1.5-1.2,1.9v0c0.8,0.2,1,1,1.1,1.7c0,0.5,0,1.3,0.3,1.7h-1.6c-0.2-0.5-0.2-1.2-0.3-1.8
		c-0.1-0.8-0.4-1.1-1.2-1.1h-1.6v2.9h-1.6V0.2z"/>
</g>
<polygon fill="#0F85BA" points="91.5,0.2 91.5,7.6 97.1,7.6 97.1,6.2 93.1,6.2 93.1,4.4 96.7,4.4 96.7,3.1 93.1,3.1 93.1,1.5 
	97,1.5 97,0.2 "/>
<path fill="#0F85BA" d="M104.2,2L104.2,2l1,2.7h-1.9L104.2,2z M103.4,0.2l-2.8,7.4h1.6l0.6-1.6h2.8l0.6,1.6h1.7l-2.8-7.4H103.4z"/>
<g>
	<defs>
		<rect id="SVGID_9_" x="0" y="0" width="226.8" height="25.8"/>
	</defs>
	<clipPath id="SVGID_10_">
		<use xlink:href="#SVGID_9_"  overflow="visible"/>
	</clipPath>
	<path clip-path="url(#SVGID_10_)" fill="#0F85BA" d="M114.9,4.8c0,2-1.2,3-3.2,3c-2,0-3.1-1-3.1-3V0.2h1.6v4.6
		c0,0.8,0.2,1.6,1.5,1.6c1.2,0,1.5-0.5,1.5-1.6V0.2h1.6V4.8z"/>
	<path clip-path="url(#SVGID_10_)" fill="#0F85BA" d="M121.8,6.7c-0.6,0.7-1.3,1-2,1c-2.3,0-3.6-1.7-3.6-3.8c0-2.2,1.3-3.9,3.6-3.9
		c1.5,0,2.9,0.9,3.1,2.6h-1.6c-0.2-0.8-0.8-1.2-1.6-1.2c-1.5,0-2,1.2-2,2.5c0,1.2,0.5,2.5,2,2.5c1.1,0,1.7-0.6,1.8-1.6h-1.6V3.6h3.1
		v4h-1L121.8,6.7z"/>
	<path clip-path="url(#SVGID_10_)" fill="#0F85BA" d="M127.2,3.1c-0.1-1.7,0.9-2.9,2.6-2.9c1.3,0,2.5,0.8,2.5,2.3
		c0,1.1-0.6,1.7-1.3,2.2c-0.7,0.5-1.6,0.9-2.1,1.7h3.4v1.3H127c0-1.7,1-2.4,2.3-3.2c0.6-0.4,1.5-0.9,1.5-1.8c0-0.7-0.5-1.1-1.1-1.1
		c-0.9,0-1.1,0.9-1.1,1.7H127.2z"/>
	<path clip-path="url(#SVGID_10_)" fill="#0F85BA" d="M133.1,3.1c-0.1-1.7,0.9-2.9,2.6-2.9c1.3,0,2.5,0.8,2.5,2.3
		c0,1.1-0.6,1.7-1.3,2.2c-0.7,0.5-1.6,0.9-2.1,1.7h3.4v1.3H133c0-1.7,1-2.4,2.3-3.2c0.6-0.4,1.5-0.9,1.5-1.8c0-0.7-0.5-1.1-1.1-1.1
		c-0.9,0-1.1,0.9-1.1,1.7H133.1z"/>
	<path clip-path="url(#SVGID_10_)" fill="#FFFFFF" d="M8.8,15.4c-0.2-2-1.5-2.8-3.4-2.8c-1.6,0-3.1,0.6-3.1,2.4c0,1.7,2.2,2,4.4,2.5
		c2.2,0.5,4.4,1.3,4.4,4c0,3-2.9,4.1-5.4,4.1C2.6,25.5,0,24,0,20.6h1.7c0,2.3,1.9,3.3,4,3.3c1.7,0,3.5-0.5,3.5-2.5
		c0-1.9-2.2-2.2-4.4-2.7c-2.2-0.5-4.4-1.1-4.4-3.7c0-2.8,2.5-4.1,5-4.1c2.8,0,5,1.3,5.1,4.4H8.8z"/>
</g>
<path fill="#FFFFFF" d="M17.9,13L17.9,13l2.4,6.5h-4.7L17.9,13z M17,11.3l-5.4,13.9h1.9L15,21h5.9l1.5,4.2h2L19,11.3H17z"/>
<polygon fill="#FFFFFF" points="22.3,11.3 22.3,12.9 26.9,12.9 26.9,25.2 28.8,25.2 28.8,12.9 33.4,12.9 33.4,11.3 "/>
<g>
	<defs>
		<rect id="SVGID_11_" x="0" y="0" width="226.8" height="25.8"/>
	</defs>
	<clipPath id="SVGID_12_">
		<use xlink:href="#SVGID_11_"  overflow="visible"/>
	</clipPath>
	<path clip-path="url(#SVGID_12_)" fill="#FFFFFF" d="M46.2,20.2c0,3.5-2,5.3-5.5,5.3c-3.6,0-5.7-1.7-5.7-5.3v-8.9h1.8v8.9
		c0,2.4,1.4,3.8,3.8,3.8c2.3,0,3.6-1.3,3.6-3.8v-8.9h1.8V20.2z"/>
	<path clip-path="url(#SVGID_12_)" fill="#FFFFFF" d="M55,17.7c1.7,0,3.2-0.4,3.2-2.5c0-1.4-0.7-2.4-2.5-2.4h-4.6v4.8H55z
		 M49.4,11.3h6.5c2.6,0,4.2,1.4,4.2,3.6c0,1.7-0.7,3.1-2.4,3.5v0c1.6,0.3,1.9,1.5,2.1,2.9c0.1,1.4,0,2.9,0.8,3.8h-2.1
		c-0.5-0.6-0.2-2.1-0.5-3.4c-0.2-1.4-0.5-2.5-2.3-2.5h-4.5v5.9h-1.8V11.3z"/>
	<path clip-path="url(#SVGID_12_)" fill="#FFFFFF" d="M64.7,23.7h3.1c1.3,0,4.7-0.4,4.7-5.5c0-3.3-1.2-5.3-4.6-5.3h-3.1V23.7z
		 M62.9,11.3h4.8c4.3,0,6.7,2.1,6.7,6.6c0,4.6-2,7.3-6.7,7.3h-4.8V11.3z"/>
</g>
<path fill="#FFFFFF" d="M81.5,13L81.5,13l2.4,6.5h-4.7L81.5,13z M80.5,11.3l-5.4,13.9H77l1.6-4.2h5.9l1.5,4.2h2l-5.4-13.9H80.5z"/>
<polygon fill="#FFFFFF" points="97,11.3 92.9,17.9 88.8,11.3 86.6,11.3 92,19.5 92,25.2 93.8,25.2 93.8,19.5 99.1,11.3 "/>
<g>
	<defs>
		<rect id="SVGID_13_" x="0" y="0" width="226.8" height="25.8"/>
	</defs>
	<clipPath id="SVGID_14_">
		<use xlink:href="#SVGID_13_"  overflow="visible"/>
	</clipPath>
	<path clip-path="url(#SVGID_14_)" fill="#FFFFFF" d="M108.9,15.4c-0.2-2-1.5-2.8-3.4-2.8c-1.6,0-3.1,0.6-3.1,2.4
		c0,1.7,2.2,2,4.4,2.5c2.2,0.5,4.4,1.3,4.4,4c0,3-2.9,4.1-5.4,4.1c-3.1,0-5.7-1.5-5.7-4.9h1.7c0,2.3,1.9,3.3,4,3.3
		c1.7,0,3.5-0.5,3.5-2.5c0-1.9-2.2-2.2-4.4-2.7c-2.2-0.5-4.4-1.1-4.4-3.7c0-2.8,2.5-4.1,5-4.1c2.8,0,5,1.3,5.1,4.4H108.9z"/>
	<path clip-path="url(#SVGID_14_)" fill="#FFFFFF" d="M120.9,12.9c-2,0-2.7,1.6-2.7,3.3c0,1.5,1.1,2.9,2.7,2.9c1.7,0,2.8-1.4,2.8-3
		C123.7,14.3,122.7,12.9,120.9,12.9 M118.4,21.9c0.1,1.3,1.2,2.1,2.5,2.1c2,0,3-1.8,3.1-5.3l0,0c-0.6,1.2-1.8,1.9-3.2,1.9
		c-2.8,0-4.3-1.9-4.3-4.6c0-2.7,1.9-4.5,4.5-4.5c2.6,0,4.7,1.4,4.7,6.6c0,4.8-1.4,7.4-4.8,7.4c-2.3,0-4-1.2-4.2-3.6H118.4z"/>
	<path clip-path="url(#SVGID_14_)" fill="#FFFFFF" d="M130.1,18h3.6c2.1,0,3-0.9,3-2.5s-1-2.5-3-2.5h-3.6V18z M128.3,11.3h6.1
		c2.8,0,4.3,1.5,4.3,4.1s-1.5,4.1-4.3,4.1h-4.2v5.7h-1.8V11.3z"/>
	<path clip-path="url(#SVGID_14_)" fill="#FFFFFF" d="M217.4,18.8L226,5.6h-13.3L210.5,9V5.6c-2.8,0-4.5,0.3-6.5,2.1V5.6h-7.6v4.1
		c0,2.9,2.3,5.3,5.2,5.5l2.5,0.1c0.3-1.3,1.6-3.1,6.4-3.1v0h3.4l-8.7,13.3h16.5l4.3-6.6H217.4z M172.2,20.3c-2,0-2.2-1.5-2.2-2.2v-6
		h2.8c-0.3,1-0.5,2.2-0.5,3.3c0,1.7,0.4,3.3,1.1,4.7C173,20.3,172.6,20.3,172.2,20.3 M187.4,7.7c-1.1-1.6-2.7-2.6-5.2-2.6
		c-2.9,0-5.5,1.3-7.3,3.3c-0.5,0.6-1,1.2-1.3,1.9V5.6H170V0.2h-7.6v16c-0.5-1-1.3-1.9-2.5-2.5c-0.9-0.5-1.7-0.7-5.2-1.4
		c-2.6-0.6-3.1-0.7-3.1-1.4c0-1,1.3-1,1.6-1c2,0,3.6,1,4.9,1.8l3.1-4.5c-0.9-0.5-1.9-1.1-3.8-1.5c-1.5-0.3-2.9-0.5-4.3-0.5
		c-1.3,0-4.5,0.1-6.8,2.2c-1.1,1.1-1.9,2.7-1.9,4.4c0,4.1,3.5,5.1,5.3,5.6c1.7,0.5,3.3,0.8,4,0.9c0.8,0.1,1.9,0.3,1.9,1.3
		c0,0.9-1.1,1.2-2,1.2c-0.6,0-1.7-0.1-3-0.6c-1.5-0.6-2.2-1.3-2.9-2l-3.2,4.7c1.8,1.3,4.7,3,9.2,3c4.6,0,7.5-1.9,8.6-4.6
		c0.1,0.9,0.3,2.1,1.3,3c1.5,1.6,4.2,1.6,5.1,1.6c1.6,0,3.1-0.2,4.8-0.4v-4.8c1.7,3.1,4.9,5.2,8.6,5.2c2.5,0,4.1-1,5.2-2.6v2.1h7.6
		v-4.1c0-2.9-2.3-5.3-5.2-5.5l-2.4-0.1c-0.1,2.1-1.8,3.7-3.9,3.7c-2.2,0-3.9-1.8-3.9-3.9c0-2.2,1.8-3.9,3.9-3.9
		c2.1,0,3.8,1.6,3.9,3.7l2.4-0.1c2.9-0.2,5.2-2.6,5.2-5.5V5.6h-7.6V7.7z M196.3,21.3v4.1h7.6v-9.3c0-0.1,0-0.2,0-0.4l-2.4,0.1
		C198.7,16,196.3,18.4,196.3,21.3"/>
	<path clip-path="url(#SVGID_14_)" fill="#FFFFFF" d="M225.5,24.2h-0.2v-0.5h0.3c0.2,0,0.3,0,0.3,0.2
		C225.9,24.2,225.7,24.2,225.5,24.2 M226.1,24c0-0.3-0.2-0.4-0.5-0.4H225V25h0.2v-0.6h0.2l0.4,0.6h0.2l-0.4-0.7
		C225.9,24.4,226.1,24.2,226.1,24 M225.5,25.4c-0.6,0-1.1-0.5-1.1-1.1c0-0.6,0.5-1.1,1.1-1.1c0.6,0,1.1,0.5,1.1,1.1
		C226.6,24.9,226.1,25.4,225.5,25.4 M225.5,23c-0.7,0-1.3,0.6-1.3,1.3c0,0.7,0.6,1.3,1.3,1.3c0.7,0,1.3-0.6,1.3-1.3
		C226.8,23.6,226.2,23,225.5,23"/>
</g>
</svg>
